<?xml version="1.0" encoding="UTF-8"?>
<svg id="Layer_2" data-name="Layer 2" xmlns="http://www.w3.org/2000/svg" viewBox="0 0 285.44 162">
  <g id="konsi-logo">
    <g>
      <path d="M284.47,94.44c.8,.32,1.18,1.24,.84,2.03-8.8,20.43-23.11,36.85-40.47,48.23-14.18,9.3-30.4,15.23-47.31,17.25-3.65,.43-6.86-2.4-6.86-6.07v-37.72c0-1.62-.64-3.18-1.79-4.33l-41.83-41.83c-2.39-2.39-6.26-2.39-8.65,0l-41.83,41.83c-1.15,1.15-1.79,2.7-1.79,4.33v37.72c0,3.68-3.23,6.51-6.88,6.07C50.29,157.47,16.12,133.6,.12,96.48c-.34-.79,.04-1.72,.84-2.03,13.26-5.28,26.97-7.78,40.45-7.78h0c-5.16-12.46-8.09-26.07-8.29-40.35-.01-.86,.69-1.57,1.56-1.56,14.28,.2,27.89,3.13,40.35,8.29,0-13.49,2.5-27.19,7.78-40.45,.32-.8,1.24-1.18,2.03-.84,13.12,5.65,24.57,13.56,34.11,23.1,5.16-12.46,12.71-24.16,22.67-34.39,.6-.62,1.6-.62,2.2,0,9.95,10.23,17.51,21.93,22.67,34.39,9.54-9.54,20.99-17.45,34.11-23.1,.79-.34,1.71,.04,2.03,.84,5.28,13.27,7.78,26.97,7.78,40.45h0c12.46-5.16,26.07-8.09,40.35-8.29,.86-.01,1.57,.69,1.56,1.56-.2,14.28-3.13,27.89-8.29,40.35,13.49,0,27.19,2.5,40.45,7.78Z" fill="#366ad9"/>
      <path d="M154.71,133.75v20.67c0,2.07-2.02,3.54-3.98,2.9-2.3-.75-4.58-1.58-6.86-2.49-.74-.3-1.55-.3-2.29,0-2.27,.91-4.56,1.74-6.86,2.49-1.97,.64-3.98-.83-3.98-2.9v-20.67c0-3.39,2.74-6.13,6.13-6.13h11.72c3.39,0,6.13,2.74,6.13,6.13Z" fill="#366ad9"/>
    </g>
  </g>
</svg>