<?xml version="1.0" encoding="UTF-8"?>
<svg id="Layer_2" data-name="Layer 2" xmlns="http://www.w3.org/2000/svg" viewBox="0 0 1920 1080">
  <g id="Layer_1-2" data-name="Layer 1">
    <g>
      <rect width="1920" height="1080" fill="#fff"/>
      <g id="konsi-logo">
        <g>
          <g>
            <path d="M904.58,552.5c.74,.3,1.1,1.15,.78,1.89-8.19,19-21.5,34.28-37.65,44.86-13.19,8.65-28.28,14.17-44.01,16.05-3.4,.4-6.38-2.23-6.38-5.65v-35.09c0-1.51-.6-2.96-1.67-4.03l-38.91-38.91c-2.22-2.22-5.82-2.22-8.05,0l-38.91,38.91c-1.07,1.07-1.67,2.51-1.67,4.03v35.09c0,3.42-3,6.06-6.4,5.65-34.99-4.17-66.77-26.37-81.65-60.9-.32-.73,.04-1.6,.78-1.89,12.33-4.91,25.09-7.24,37.63-7.24h0c-4.8-11.59-7.53-24.25-7.71-37.53,0-.8,.64-1.46,1.45-1.45,13.28,.19,25.94,2.91,37.53,7.71,0-12.55,2.33-25.29,7.24-37.63,.3-.74,1.15-1.1,1.89-.78,12.2,5.26,22.86,12.61,31.73,21.49,4.8-11.59,11.82-22.47,21.09-31.99,.56-.58,1.49-.58,2.05,0,9.26,9.52,16.29,20.4,21.09,31.99,8.87-8.87,19.53-16.23,31.73-21.49,.73-.32,1.59,.04,1.89,.78,4.91,12.34,7.24,25.09,7.24,37.63h0c11.59-4.8,24.25-7.53,37.53-7.71,.8,0,1.46,.64,1.45,1.45-.19,13.28-2.91,25.94-7.71,37.53,12.55,0,25.29,2.33,37.63,7.24h0Z" fill="#366ad9"/>
            <path d="M783.88,589.07v19.23c0,1.93-1.88,3.29-3.7,2.7-2.14-.7-4.26-1.47-6.38-2.32-.69-.28-1.44-.28-2.13,0-2.11,.85-4.24,1.62-6.38,2.32-1.83,.6-3.7-.77-3.7-2.7v-19.23c0-3.15,2.55-5.7,5.7-5.7h10.9c3.15,0,5.7,2.55,5.7,5.7h0Z" fill="#366ad9"/>
          </g>
          <g>
            <path d="M960.16,568.46l-4.52,4.6c-.43,.44-.67,1.02-.67,1.63v13.4c0,1.28-1.04,2.33-2.33,2.33h-19.17c-1.28,0-2.33-1.04-2.33-2.33v-88.4c0-1.28,1.04-2.33,2.33-2.33h19.17c1.28,0,2.33,1.04,2.33,2.33v40.94c0,2.06,2.47,3.11,3.95,1.67l19.7-19.19c.44-.42,1.01-.66,1.63-.66h21.78c2.06,0,3.1,2.47,1.67,3.94l-22.98,23.68c-.81,.84-.87,2.14-.16,3.06l26.38,33.52c1.2,1.53,.11,3.77-1.83,3.77h-22.93c-.71,0-1.38-.33-1.81-.87l-16.73-20.9c-.87-1.09-2.5-1.17-3.48-.18h0Z" fill="#366ad9"/>
            <path d="M1009.91,556.3c0-20.44,16.18-34.99,38.37-34.99s38.37,14.55,38.37,34.99-15.93,35.24-38.37,35.24-38.37-14.67-38.37-35.24Zm52.67,0c0-10.28-6.15-16.06-14.3-16.06s-14.3,5.77-14.3,16.06,6.27,16.31,14.3,16.31,14.3-5.9,14.3-16.31Z" fill="#366ad9"/>
            <path d="M1170.05,551.53v36.55c0,1.28-1.04,2.33-2.33,2.33h-19.17c-1.28,0-2.33-1.04-2.33-2.33v-32.66c0-9.79-4.26-13.92-11.16-13.92-7.65,0-13.54,4.76-13.54,16.06v30.53c0,1.28-1.04,2.33-2.33,2.33h-19.17c-1.28,0-2.33-1.04-2.33-2.33v-63.32c0-1.28,1.04-2.33,2.33-2.33h18.05c1.28,0,2.33,1.04,2.33,2.33h0c0,1.91,2.15,2.98,3.7,1.87,4.96-3.53,11.14-5.33,17.87-5.33,15.93,0,28.09,9.15,28.09,30.22h0Z" fill="#366ad9"/>
            <path d="M1180.42,582.59l5.27-12.04c.54-1.24,2.02-1.73,3.22-1.11,6.1,3.15,14.15,5.03,21.51,5.03,8.03,0,10.66-1.76,10.66-4.64,0-9.15-40.13,1.26-40.13-25.96,0-12.79,11.79-22.58,33.11-22.58,8.63,0,18.08,1.65,24.82,4.75,1.14,.53,1.63,1.89,1.13,3.04l-5.26,11.9c-.53,1.21-1.96,1.71-3.15,1.14-6.05-2.9-12.03-3.91-17.41-3.91-8.03,0-10.91,2.26-10.91,4.76,0,9.4,40-.75,40,26.21,0,12.54-11.53,22.33-33.61,22.33-10.49,0-21.3-2.39-28.17-5.93-1.1-.57-1.58-1.88-1.08-3.01h0Z" fill="#366ad9"/>
            <path d="M1250.94,502.25c0-7.14,5.77-12.67,14.55-12.67s14.55,5.14,14.55,12.29c0,7.53-5.77,13.04-14.55,13.04s-14.55-5.52-14.55-12.67h0Zm4.96,20.19h19.17c1.28,0,2.33,1.04,2.33,2.33v63.32c0,1.28-1.04,2.33-2.33,2.33h-19.17c-1.28,0-2.33-1.04-2.33-2.33v-63.31c0-1.28,1.04-2.33,2.33-2.33h0Z" fill="#366ad9"/>
          </g>
        </g>
      </g>
    </g>
  </g>
</svg>