<?xml version="1.0" encoding="UTF-8"?>
<svg id="Layer_2" data-name="Layer 2" xmlns="http://www.w3.org/2000/svg" viewBox="0 0 648 181.92">
  <g id="konsi-logo">
    <g>
      <g>
        <path d="M184.81,63.08l-31.23,18.03c-10.56,6.1-23.57,6.1-34.13,0h0s-17.06-9.85-17.06-9.85h0c-10.56-6.1-17.06-17.36-17.06-29.56V5.64h34.13V61.4l48.29-27.88,17.06,29.56Z" fill="#fff"/>
        <path d="M184.81,118.84l-17.06,29.56-48.29-27.88v55.76h-34.13v-36.06c0-12.19,6.5-23.46,17.06-29.55h0s17.06-9.85,17.06-9.85h0c10.56-6.1,23.57-6.1,34.13,0l31.23,18.03Z" fill="#fff"/>
        <path d="M85.33,81.1v19.71c0,12.19-6.5,23.46-17.06,29.55l-31.23,18.03-17.06-29.56,48.29-27.88L19.97,63.08l17.06-29.56,31.23,18.03c10.56,6.1,17.06,17.36,17.06,29.55Z" fill="#fff"/>
        <rect x="170.65" y="73.89" width="34.13" height="34.13" rx="17.06" ry="17.06" fill="#fff"/>
        <rect x="42.66" y="0" width="34.13" height="34.13" rx="17.06" ry="17.06" transform="translate(-.53 32.15) rotate(-30)" fill="#fff"/>
        <rect x="42.66" y="147.79" width="34.13" height="34.13" rx="17.06" ry="17.06" transform="translate(-112.9 134.15) rotate(-60)" fill="#fff"/>
        <rect x="127.99" y="0" width="34.13" height="34.13" rx="17.06" ry="17.06" fill="#fff"/>
        <rect x="0" y="73.89" width="34.13" height="34.13" rx="17.06" ry="17.06" transform="translate(-43.19 20.72) rotate(-30)" fill="#fff"/>
        <rect x="127.99" y="147.79" width="34.13" height="34.13" rx="17.06" ry="17.06" transform="translate(-70.24 208.04) rotate(-60)" fill="#fff"/>
      </g>
      <g>
        <path d="M270.67,118.36l-11.51,11.36v21.03h-23.95V36.85h23.95V101.32l35-33.16h28.55l-34.38,35,37.45,47.59h-29.01l-26.1-32.39Z" fill="#fff"/>
        <path d="M326.86,109.46c0-24.87,19.19-42.52,45.44-42.52s45.28,17.65,45.28,42.52-19.03,42.52-45.28,42.52-45.44-17.65-45.44-42.52Zm66.47,0c0-14.27-9.06-22.87-21.03-22.87s-21.18,8.6-21.18,22.87,9.21,22.87,21.18,22.87,21.03-8.6,21.03-22.87Z" fill="#fff"/>
        <path d="M517.97,103.47v47.28h-23.95v-43.59c0-13.35-6.14-19.5-16.73-19.5-11.51,0-19.8,7.06-19.8,22.26v40.83h-23.95V68.16h22.87v9.67c6.45-7.06,16.12-10.9,27.32-10.9,19.49,0,34.23,11.36,34.23,36.53Z" fill="#fff"/>
        <path d="M531.64,143.07l7.98-17.19c7.37,4.76,18.57,7.98,28.7,7.98,11.05,0,15.2-2.92,15.2-7.52,0-13.51-49.89,.31-49.89-32.7,0-15.66,14.12-26.71,38.22-26.71,11.36,0,23.95,2.61,31.78,7.22l-7.98,17.04c-8.14-4.6-16.27-6.14-23.79-6.14-10.74,0-15.35,3.38-15.35,7.68,0,14.12,49.89,.46,49.89,33,0,15.35-14.28,26.25-38.99,26.25-13.97,0-28.09-3.84-35.77-8.9Z" fill="#fff"/>
        <path d="M618.22,43.3c0-7.52,5.99-13.35,14.89-13.35s14.89,5.52,14.89,12.89c0,7.98-5.99,13.82-14.89,13.82s-14.89-5.83-14.89-13.35Zm2.92,24.87h23.95v82.58h-23.95V68.16Z" fill="#fff"/>
      </g>
    </g>
  </g>
</svg>