<?xml version="1.0" encoding="UTF-8"?>
<svg id="Layer_2" data-name="Layer 2" xmlns="http://www.w3.org/2000/svg" viewBox="0 0 688.09 162">
  <g id="konsi-logo">
    <g>
      <g>
        <path d="M284.47,94.44c.8,.32,1.18,1.24,.84,2.03-8.8,20.43-23.11,36.85-40.47,48.23-14.18,9.3-30.4,15.23-47.31,17.25-3.65,.43-6.86-2.4-6.86-6.07v-37.72c0-1.62-.64-3.18-1.79-4.33l-41.83-41.83c-2.39-2.39-6.26-2.39-8.65,0l-41.83,41.83c-1.15,1.15-1.79,2.7-1.79,4.33v37.72c0,3.68-3.23,6.51-6.88,6.07C50.29,157.47,16.12,133.6,.12,96.48c-.34-.79,.04-1.72,.84-2.03,13.26-5.28,26.97-7.78,40.45-7.78h0c-5.16-12.46-8.09-26.07-8.29-40.35-.01-.86,.69-1.57,1.56-1.56,14.28,.2,27.89,3.13,40.35,8.29,0-13.49,2.5-27.19,7.78-40.45,.32-.8,1.24-1.18,2.03-.84,13.12,5.65,24.57,13.56,34.11,23.1,5.16-12.46,12.71-24.16,22.67-34.39,.6-.62,1.6-.62,2.2,0,9.95,10.23,17.51,21.93,22.67,34.39,9.54-9.54,20.99-17.45,34.11-23.1,.79-.34,1.71,.04,2.03,.84,5.28,13.27,7.78,26.97,7.78,40.45h0c12.46-5.16,26.07-8.09,40.35-8.29,.86-.01,1.57,.69,1.56,1.56-.2,14.28-3.13,27.89-8.29,40.35,13.49,0,27.19,2.5,40.45,7.78Z" fill="#fff"/>
        <path d="M154.71,133.75v20.67c0,2.07-2.02,3.54-3.98,2.9-2.3-.75-4.58-1.58-6.86-2.49-.74-.3-1.55-.3-2.29,0-2.27,.91-4.56,1.74-6.86,2.49-1.97,.64-3.98-.83-3.98-2.9v-20.67c0-3.39,2.74-6.13,6.13-6.13h11.72c3.39,0,6.13,2.74,6.13,6.13Z" fill="#fff"/>
      </g>
      <g>
        <path d="M344.22,111.59l-4.86,4.94c-.46,.47-.72,1.1-.72,1.75v14.41c0,1.38-1.12,2.5-2.5,2.5h-20.61c-1.38,0-2.5-1.12-2.5-2.5V37.66c0-1.38,1.12-2.5,2.5-2.5h20.61c1.38,0,2.5,1.12,2.5,2.5v44.01c0,2.21,2.66,3.34,4.25,1.79l21.18-20.63c.47-.45,1.09-.71,1.75-.71h23.41c2.21,0,3.33,2.66,1.8,4.24l-24.7,25.46c-.87,.9-.94,2.3-.17,3.29l28.36,36.03c1.29,1.64,.12,4.05-1.97,4.05h-24.65c-.76,0-1.48-.35-1.95-.94l-17.98-22.47c-.94-1.17-2.69-1.26-3.74-.19Z" fill="#fff"/>
        <path d="M397.7,98.52c0-21.97,17.39-37.61,41.25-37.61s41.25,15.64,41.25,37.61-17.12,37.88-41.25,37.88-41.25-15.77-41.25-37.88Zm56.62,0c0-11.05-6.61-17.26-15.37-17.26s-15.37,6.2-15.37,17.26,6.74,17.53,15.37,17.53,15.37-6.34,15.37-17.53Z" fill="#fff"/>
        <path d="M569.86,93.4v39.29c0,1.38-1.12,2.5-2.5,2.5h-20.61c-1.38,0-2.5-1.12-2.5-2.5v-35.11c0-10.52-4.58-14.96-12-14.96-8.22,0-14.56,5.12-14.56,17.26v32.82c0,1.38-1.12,2.5-2.5,2.5h-20.61c-1.38,0-2.5-1.12-2.5-2.5V64.63c0-1.38,1.12-2.5,2.5-2.5h19.4c1.38,0,2.5,1.12,2.5,2.5h0c0,2.05,2.31,3.2,3.98,2.01,5.33-3.8,11.98-5.73,19.21-5.73,17.12,0,30.2,9.84,30.2,32.49Z" fill="#fff"/>
        <path d="M581.01,126.79l5.67-12.94c.58-1.33,2.17-1.86,3.46-1.19,6.56,3.39,15.21,5.41,23.12,5.41,8.63,0,11.46-1.89,11.46-4.99,0-9.84-43.14,1.35-43.14-27.91,0-13.75,12.67-24.27,35.59-24.27,9.28,0,19.44,1.77,26.68,5.11,1.23,.57,1.75,2.03,1.21,3.27l-5.65,12.79c-.57,1.3-2.11,1.84-3.39,1.23-6.5-3.12-12.93-4.2-18.72-4.2-8.63,0-11.73,2.43-11.73,5.12,0,10.11,43-.81,43,28.18,0,13.48-12.4,24-36.13,24-11.28,0-22.9-2.57-30.28-6.38-1.18-.61-1.7-2.02-1.16-3.24Z" fill="#fff"/>
        <path d="M656.82,40.42c0-7.68,6.2-13.62,15.64-13.62s15.64,5.53,15.64,13.21c0,8.09-6.2,14.02-15.64,14.02s-15.64-5.93-15.64-13.62Zm5.33,21.7h20.61c1.38,0,2.5,1.12,2.5,2.5v68.07c0,1.38-1.12,2.5-2.5,2.5h-20.61c-1.38,0-2.5-1.12-2.5-2.5V64.63c0-1.38,1.12-2.5,2.5-2.5Z" fill="#fff"/>
      </g>
    </g>
  </g>
</svg>