<?xml version="1.0" encoding="UTF-8"?>
<svg id="Layer_2" data-name="Layer 2" xmlns="http://www.w3.org/2000/svg" viewBox="0 0 485.74 464.71">
  <g id="konsi-logo">
    <g>
      <g>
        <path d="M476.7,158.54c-18.41-7.62-37.57-12.2-57.15-13.67,6.07-18.5,9.21-38.05,9.21-58.08v-9.78h-9.78c-20.02,0-39.56,3.14-58.05,9.2-1.48-19.4-6.05-38.64-13.71-57.14l-3.75-9.04-9.04,3.74c-18.5,7.66-35.34,18.04-50.1,30.71-8.79-17.35-20.39-33.39-34.54-47.55l-6.92-6.92-6.92,6.92c-14.16,14.16-25.75,30.19-34.54,47.55-14.76-12.67-31.61-23.05-50.1-30.71l-9.04-3.74-3.75,9.04c-7.66,18.5-12.23,37.75-13.71,57.14-18.49-6.05-38.03-9.2-58.05-9.2h-9.78v9.78c0,20.03,3.14,39.58,9.21,58.08-19.58,1.47-38.75,6.05-57.15,13.67l-9.04,3.75,3.74,9.04c14.35,34.64,38.44,63.77,69.68,84.25,24.99,16.38,53.23,26.44,82.62,29.53,3.25,.34,6.51,.6,9.78,.77v-85.2l21.98-21.98,6.71-6.71,6.85-6.85,1.6-1.6,5.39-5.39,7.01-7.01,13.57-13.57,5.14-5.14,7.47-7.47,1.34-1.34,1.34,1.34,7.47,7.47,5.14,5.14,13.57,13.57,7.01,7.01,5.39,5.39,1.6,1.6,6.85,6.85,6.71,6.71,21.98,21.98v85.2c3.27-.17,6.54-.43,9.78-.77,29.39-3.09,57.62-13.15,82.62-29.53,31.24-20.48,55.33-49.61,69.68-84.25l3.75-9.04-9.04-3.75Zm-86.79,6.12c1.78-3.34,3.44-6.74,4.98-10.2,1.47-3.28,2.82-6.62,4.07-10,5.59-15.14,8.95-31.14,9.93-47.6-16.44,.97-32.41,4.34-47.54,9.91,.12-3.45,.15-6.91,.07-10.37,18.03-6.24,37.4-9.62,57.55-9.62,0,20.17-3.39,39.55-9.64,57.6-1.13,3.3-2.37,6.54-3.7,9.75-1.38,3.33-2.86,6.62-4.43,9.84-8.61,17.63-20.08,33.61-33.8,47.33-11.18,11.18-23.85,20.86-37.7,28.71v-11.31c11.05-6.79,21.38-14.93,30.78-24.32,11.89-11.89,21.77-25.28,29.44-39.73Zm-233.87,110.58c-61.68-6.9-117.83-46.26-143.26-107.66,18.62-7.71,37.81-12,56.85-13.14,1.25,3.23,2.61,6.43,4.05,9.59-16.27,.63-32.27,3.64-47.73,9,13.1,26.96,33.06,49.7,58.19,66.17,21.79,14.28,46.34,23.19,71.9,26.2v9.83Zm0-35.22c-30.84-17.51-55.88-44.06-71.49-76.05h0c-1.58-3.23-3.06-6.51-4.43-9.84-1.33-3.2-2.57-6.45-3.7-9.75-6.25-18.05-9.64-37.43-9.64-57.6,20.15,0,39.52,3.39,57.55,9.62-.08,3.46-.05,6.92,.07,10.37-15.13-5.58-31.11-8.94-47.54-9.91,.98,16.45,4.34,32.46,9.93,47.6,1.25,3.38,2.6,6.71,4.07,10,1.53,3.45,3.2,6.85,4.98,10.2,7.67,14.45,17.55,27.83,29.44,39.73,9.4,9.4,19.73,17.54,30.78,24.32v11.31Zm-3.02-194.06c-5.39,15.56-8.41,31.61-9.04,47.72-.14,3.62-.17,7.24-.07,10.85,.1,3.76,.32,7.52,.68,11.28,1.44,15.02,4.95,29.92,10.54,44.34h0c.47,1.23,.96,2.46,1.47,3.68,1.42,3.42,2.94,6.78,4.56,10.07,1.92,3.9,3.98,7.7,6.18,11.41l-7.11,7.11c-2.26-3.67-4.38-7.42-6.35-11.25-2.3-4.43-4.4-8.97-6.31-13.58-1.68-4.04-3.2-8.13-4.57-12.28-4.72-14.31-7.62-29.25-8.56-44.44-.22-3.56-.33-7.15-.33-10.74s.1-6.98,.31-10.47c1.14-19.05,5.43-38.24,13.14-56.85,18.62,7.71,35.21,18.25,49.49,30.91-1.39,3.17-2.69,6.38-3.9,9.62-11.84-10.95-25.33-20.17-40.14-27.36Zm141.43,92.4c0,5-.21,10-.64,14.98-.19,2.23-.42,4.46-.7,6.68l-8.93-8.93c.04-.57,.08-1.13,.12-1.7,.24-3.66,.36-7.34,.36-11.04,0-1.31-.01-2.62-.04-3.93h0c-.36-15.47-2.82-30.59-7.25-45.02h0c-1.1-3.61-2.33-7.17-3.68-10.69-1.29-3.38-2.7-6.71-4.21-10-6.76-14.64-15.68-28.32-26.61-40.63-10.93,12.31-19.85,25.99-26.61,40.63-1.52,3.28-2.92,6.62-4.21,10-1.35,3.52-2.58,7.08-3.68,10.68-4.43,14.44-6.89,29.56-7.25,45.03-.03,1.31-.04,2.62-.04,3.93,0,3.7,.12,7.38,.36,11.04,.04,.57,.07,1.13,.12,1.7l-8.93,8.93c-.28-2.23-.51-4.45-.7-6.68-.42-4.98-.64-9.99-.64-14.98h0c0-4.36,.16-8.71,.48-13.06,1.11-15.04,4.14-29.96,9.1-44.36,1.16-3.38,2.43-6.73,3.81-10.05,1.33-3.22,2.76-6.41,4.29-9.56,8.35-17.16,19.64-33.25,33.89-47.49,14.25,14.25,25.55,30.33,33.89,47.49,1.53,3.15,2.97,6.33,4.29,9.56,1.38,3.32,2.65,6.67,3.81,10.05,4.96,14.41,7.99,29.33,9.1,44.36,.32,4.35,.48,8.7,.48,13.05h0Zm31.06,54.06l-7.11-7.11c2.2-3.71,4.26-7.51,6.18-11.41,1.63-3.29,3.14-6.65,4.56-10.07,.51-1.22,1-2.45,1.47-3.67h0c5.59-14.42,9.1-29.33,10.54-44.34,.36-3.75,.59-7.51,.68-11.28,.1-3.61,.07-7.23-.07-10.85-.64-16.11-3.65-32.16-9.04-47.72-14.81,7.19-28.29,16.41-40.14,27.36-1.2-3.24-2.5-6.45-3.9-9.62,14.27-12.66,30.87-23.2,49.49-30.91,7.71,18.62,12,37.81,13.14,56.85,.21,3.5,.31,6.99,.31,10.47h0c0,3.6-.11,7.18-.33,10.74-.94,15.19-3.84,30.13-8.56,44.44-1.37,4.15-2.89,8.25-4.57,12.28-1.91,4.61-4.01,9.15-6.31,13.58-1.98,3.83-4.09,7.58-6.35,11.25Zm81.45,54.97c-23.14,15.17-49.65,24.76-77.26,27.85v-9.83c25.56-3.01,50.1-11.92,71.89-26.21,25.13-16.47,45.1-39.21,58.19-66.17-15.46-5.36-31.46-8.37-47.73-9,1.44-3.16,2.8-6.36,4.05-9.59,19.05,1.14,38.24,5.43,56.85,13.14-14.05,33.91-37.46,61.1-66,79.81Z" fill="#fff"/>
        <path d="M262.13,219.93v59.83c-3.28-.89-6.54-1.86-9.78-2.94-1.37-.45-2.73-.91-4.08-1.39-1.01-.35-2.01-.72-3.01-1.1-.78-.29-1.55-.58-2.32-.88h0s-.04-.02-.06-.03c-.02,.01-.04,.02-.06,.03-.77,.3-1.55,.59-2.32,.88-1,.38-2,.75-3.01,1.1-1.36,.48-2.71,.95-4.08,1.39-3.24,1.08-6.5,2.05-9.78,2.94v-59.83h38.52Z" fill="#fff"/>
      </g>
      <g>
        <path d="M106.5,429.31l-16.32,15v19.74h-9.34v-97.64h9.34v66.19l41.32-37.77h11.58l-29.61,28.29,32.37,40.92h-11.45l-27.9-34.74Z" fill="#fff"/>
        <path d="M150.19,429.44c0-20.53,15-35.13,35.27-35.13s35.13,14.61,35.13,35.13-14.87,35.27-35.13,35.27-35.27-14.74-35.27-35.27Zm60.93,0c0-16.19-10.92-26.98-25.66-26.98s-25.79,10.79-25.79,26.98,11.05,26.98,25.79,26.98,25.66-10.79,25.66-26.98Z" fill="#fff"/>
        <path d="M303.36,423.92v40.14h-9.34v-39.21c0-14.61-7.63-22.11-20.79-22.11-14.87,0-24.21,9.21-24.21,25v36.32h-9.34v-69.22h8.95v12.76c5-8.42,14.34-13.29,26.32-13.29,16.84,0,28.42,9.74,28.42,29.61Z" fill="#fff"/>
        <path d="M319.16,456.16l4.21-7.37c5.53,4.34,14.87,7.76,24.61,7.76,13.16,0,18.55-4.47,18.55-11.32,0-18.03-44.87-3.82-44.87-31.19,0-11.32,9.74-19.74,27.37-19.74,8.95,0,18.69,2.5,24.48,6.45l-4.08,7.5c-6.05-4.21-13.29-5.92-20.4-5.92-12.5,0-18.03,4.87-18.03,11.45,0,18.69,44.87,4.61,44.87,31.19,0,11.98-10.53,19.74-28.56,19.74-11.45,0-22.5-3.68-28.16-8.55Z" fill="#fff"/>
        <path d="M391.01,372.99c0-3.55,3.03-6.58,6.84-6.58s6.84,2.89,6.84,6.45c0,3.82-2.89,6.84-6.84,6.84s-6.84-3.03-6.84-6.71Zm2.11,21.84h9.34v69.22h-9.34v-69.22Z" fill="#fff"/>
      </g>
    </g>
  </g>
</svg>