<?xml version="1.0" encoding="UTF-8"?>
<svg id="Layer_2" data-name="Layer 2" xmlns="http://www.w3.org/2000/svg" viewBox="0 0 648 182.65">
  <g id="konsi-logo">
    <g>
      <g>
        <path d="M185.55,63.33l-31.35,18.1c-10.6,6.12-23.67,6.12-34.27,0h0s-17.13-9.89-17.13-9.89h0c-10.6-6.12-17.13-17.43-17.13-29.67V5.66h34.27V61.64l48.49-27.99,17.13,29.68Z" fill="#fff"/>
        <path d="M185.55,119.32l-17.13,29.68-48.49-27.99v55.99h-34.27v-36.21c0-12.24,6.53-23.55,17.13-29.67h0s17.13-9.89,17.13-9.89h0c10.6-6.12,23.66-6.12,34.27,0l31.35,18.1Z" fill="#fff"/>
        <path d="M85.67,81.43v19.79c0,12.24-6.53,23.55-17.13,29.67l-31.35,18.1-17.13-29.68,48.49-27.99L20.05,63.33l17.13-29.68,31.35,18.1c10.6,6.12,17.13,17.43,17.13,29.67Z" fill="#fff"/>
        <rect x="171.33" y="74.19" width="34.27" height="34.27" rx="17.13" ry="17.13" fill="#fff"/>
        <rect x="42.83" y="0" width="34.27" height="34.27" rx="17.13" ry="17.13" transform="translate(-.53 32.28) rotate(-30)" fill="#fff"/>
        <rect x="42.83" y="148.38" width="34.27" height="34.27" rx="17.13" ry="17.13" transform="translate(-113.35 134.69) rotate(-60)" fill="#fff"/>
        <rect x="128.5" y="0" width="34.27" height="34.27" rx="17.13" ry="17.13" fill="#fff"/>
        <rect x="0" y="74.19" width="34.27" height="34.27" rx="17.13" ry="17.13" transform="translate(-43.37 20.8) rotate(-30)" fill="#fff"/>
        <rect x="128.5" y="148.38" width="34.27" height="34.27" rx="17.13" ry="17.13" transform="translate(-70.52 208.88) rotate(-60)" fill="#fff"/>
      </g>
      <g>
        <path d="M271.5,118.66l-11.49,11.33v20.98h-23.89V37.33h23.89V101.66l34.92-33.08h28.49l-34.31,34.92,37.37,47.48h-28.95l-26.04-32.32Z" fill="#fff"/>
        <path d="M327.56,109.78c0-24.81,19.15-42.43,45.34-42.43s45.18,17.61,45.18,42.43-18.99,42.43-45.18,42.43-45.34-17.61-45.34-42.43Zm66.32,0c0-14.24-9.04-22.82-20.98-22.82s-21.14,8.58-21.14,22.82,9.19,22.82,21.14,22.82,20.98-8.58,20.98-22.82Z" fill="#fff"/>
        <path d="M518.26,103.81v47.17h-23.89v-43.5c0-13.33-6.13-19.45-16.7-19.45-11.49,0-19.76,7.05-19.76,22.21v40.74h-23.89V68.58h22.82v9.65c6.43-7.05,16.08-10.87,27.26-10.87,19.45,0,34.16,11.33,34.16,36.45Z" fill="#fff"/>
        <path d="M531.9,143.32l7.96-17.15c7.35,4.75,18.53,7.96,28.64,7.96,11.03,0,15.16-2.91,15.16-7.51,0-13.48-49.78,.31-49.78-32.62,0-15.62,14.09-26.65,38.14-26.65,11.34,0,23.89,2.6,31.71,7.2l-7.96,17c-8.12-4.59-16.23-6.13-23.74-6.13-10.72,0-15.32,3.37-15.32,7.66,0,14.09,49.78,.46,49.78,32.93,0,15.32-14.24,26.19-38.9,26.19-13.94,0-28.03-3.83-35.69-8.88Z" fill="#fff"/>
        <path d="M618.29,43.77c0-7.51,5.97-13.33,14.86-13.33s14.86,5.51,14.86,12.86c0,7.96-5.97,13.79-14.86,13.79s-14.86-5.82-14.86-13.33Zm2.91,24.81h23.89v82.4h-23.89V68.58Z" fill="#fff"/>
      </g>
    </g>
  </g>
</svg>