<?xml version="1.0" encoding="UTF-8"?>
<svg id="Layer_2" data-name="Layer 2" xmlns="http://www.w3.org/2000/svg" viewBox="0 0 648 474.58">
  <g id="konsi-logo">
    <g>
      <g>
        <path d="M411.61,66.11l-33.18,18.9c-11.22,6.39-25.04,6.39-36.26,0h0s-18.13-10.32-18.13-10.32h0c-11.22-6.39-18.13-18.2-18.13-30.98V5.91h36.26v58.44l51.31-29.22,18.13,30.98Z" fill="#fff"/>
        <path d="M411.61,124.55l-18.13,30.98-51.31-29.22v58.44h-36.26v-37.8c0-12.78,6.91-24.58,18.13-30.97h0s18.13-10.33,18.13-10.33h0c11.22-6.39,25.04-6.39,36.26,0l33.18,18.9Z" fill="#fff"/>
        <path d="M305.91,85v20.66c0,12.78-6.91,24.59-18.13,30.98l-33.18,18.9-18.13-30.98,51.31-29.22-51.31-29.22,18.13-30.98,33.18,18.9c11.22,6.39,18.13,18.2,18.13,30.98Z" fill="#fff"/>
        <path d="M396.56,95.33h0c0,9.88,8.12,17.88,18.13,17.88h0c10.01,0,18.13-8.01,18.13-17.88h0c0-9.88-8.12-17.88-18.13-17.88h0c-10.01,0-18.13,8.01-18.13,17.88Z" fill="#fff"/>
        <path d="M287.78,33.38h0c8.67-4.94,11.64-15.88,6.64-24.43h0c-5.01-8.55-16.09-11.49-24.77-6.55h0c-8.67,4.94-11.64,15.88-6.64,24.43h0c5.01,8.55,16.09,11.49,24.77,6.55Z" fill="#fff"/>
        <path d="M287.78,157.29h0c-8.67-4.94-19.76-2.01-24.77,6.55h0c-5.01,8.55-2.04,19.49,6.64,24.43h0c8.67,4.94,19.76,2.01,24.77-6.55h0c5.01-8.55,2.04-19.49-6.64-24.43Z" fill="#fff"/>
        <path d="M351.23,17.89h0c0,9.88,8.12,17.88,18.13,17.88h0c10.01,0,18.13-8.01,18.13-17.88h0C387.49,8.01,379.38,0,369.36,0h0c-10.01,0-18.13,8.01-18.13,17.88Z" fill="#fff"/>
        <path d="M242.45,110.82h0c8.67-4.94,11.64-15.88,6.64-24.43h0c-5.01-8.55-16.09-11.49-24.77-6.55h0c-8.67,4.94-11.64,15.88-6.64,24.43h0c5.01,8.55,16.09,11.49,24.77,6.55Z" fill="#fff"/>
        <path d="M378.43,157.29h0c-8.67-4.94-19.76-2.01-24.77,6.55h0c-5.01,8.55-2.04,19.49,6.64,24.43h0c8.67,4.94,19.76,2.01,24.77-6.55h0c5.01-8.55,2.04-19.49-6.64-24.43Z" fill="#fff"/>
      </g>
      <g>
        <path d="M55.66,421.81l-18.07,17.83v33.01H0v-178.8H37.59v101.21l54.94-52.05h44.82l-53.98,54.94,58.8,74.7h-45.54l-40.96-50.84Z" fill="#fff"/>
        <path d="M143.87,407.84c0-39.04,30.12-66.75,71.33-66.75s71.08,27.71,71.08,66.75-29.88,66.75-71.08,66.75-71.33-27.71-71.33-66.75Zm104.34,0c0-22.41-14.22-35.9-33.01-35.9s-33.25,13.5-33.25,35.9,14.46,35.9,33.25,35.9,33.01-13.49,33.01-35.9Z" fill="#fff"/>
        <path d="M443.88,398.44v74.22h-37.59v-68.43c0-20.96-9.64-30.6-26.27-30.6-18.07,0-31.08,11.08-31.08,34.94v64.1h-37.59v-129.64h35.9v15.18c10.12-11.08,25.3-17.11,42.89-17.11,30.6,0,53.74,17.83,53.74,57.35Z" fill="#fff"/>
        <path d="M465.34,460.61l12.53-26.99c11.56,7.47,29.15,12.53,45.06,12.53,17.35,0,23.86-4.58,23.86-11.81,0-21.2-78.32,.48-78.32-51.33,0-24.58,22.17-41.93,60-41.93,17.83,0,37.59,4.1,49.88,11.33l-12.53,26.75c-12.77-7.23-25.54-9.64-37.35-9.64-16.87,0-24.09,5.3-24.09,12.05,0,22.17,78.31,.72,78.31,51.81,0,24.09-22.41,41.2-61.21,41.2-21.93,0-44.1-6.02-56.15-13.98Z" fill="#fff"/>
        <path d="M601.25,303.98c0-11.81,9.4-20.96,23.38-20.96s23.37,8.67,23.37,20.24c0,12.53-9.4,21.69-23.37,21.69s-23.38-9.16-23.38-20.96Zm4.58,39.04h37.59v129.64h-37.59v-129.64Z" fill="#fff"/>
      </g>
    </g>
  </g>
</svg>