<?xml version="1.0" encoding="UTF-8"?>
<svg id="Layer_2" data-name="Layer 2" xmlns="http://www.w3.org/2000/svg" viewBox="0 0 521.74 646">
  <g id="konsi-logo">
    <g>
      <g>
        <path d="M470.87,158.54l-79.56,45.31c-26.91,15.32-60.05,15.32-86.96,0h0s-43.48-24.76-43.48-24.76h-.01c-26.9-15.33-43.47-43.64-43.47-74.28V14.17h86.96V154.32l123.04-70.08,43.48,74.3Z" fill="#fff"/>
        <path d="M470.87,298.7l-43.48,74.3-123.04-70.08v140.16h-86.96v-90.64c0-30.64,16.57-58.96,43.47-74.28h.01s43.48-24.76,43.48-24.76h0c26.9-15.33,60.05-15.33,86.96,0l79.56,45.31Z" fill="#fff"/>
        <path d="M217.4,203.84v49.55c0,30.64-16.57,58.96-43.48,74.28l-79.57,45.32-43.48-74.3,123.04-70.08L50.88,158.54l43.48-74.3,79.57,45.32c26.9,15.32,43.48,43.64,43.48,74.28Z" fill="#fff"/>
        <path d="M434.78,228.62h0c0,23.69,19.47,42.89,43.48,42.89h0c24.01,0,43.48-19.2,43.48-42.89h0c0-23.69-19.47-42.89-43.48-42.89h0c-24.01,0-43.48,19.2-43.48,42.89Z" fill="#fff"/>
        <path d="M173.92,80.04h0c20.8-11.84,27.92-38.08,15.91-58.59h0C177.83,.94,151.24-6.09,130.44,5.75h0c-20.8,11.84-27.92,38.08-15.91,58.59h0c12.01,20.51,38.6,27.54,59.39,15.7Z" fill="#fff"/>
        <path d="M173.92,377.19h0c-20.8-11.84-47.39-4.82-59.39,15.7h0c-12.01,20.51-4.88,46.75,15.91,58.59h0c20.8,11.84,47.39,4.82,59.39-15.7h0c12.01-20.51,4.88-46.75-15.91-58.59Z" fill="#fff"/>
        <path d="M326.09,42.9h0c0,23.69,19.47,42.89,43.48,42.89h0c24.01,0,43.48-19.2,43.48-42.89h0C413.05,19.21,393.58,0,369.57,0h0c-24.01,0-43.48,19.2-43.48,42.89Z" fill="#fff"/>
        <path d="M65.22,265.76h0c20.8-11.84,27.92-38.08,15.91-58.59h0c-12.01-20.51-38.6-27.54-59.39-15.7h0C.95,203.32-6.17,229.55,5.83,250.06h0c12.01,20.51,38.6,27.54,59.39,15.7Z" fill="#fff"/>
        <path d="M391.31,377.19h0c-20.8-11.84-47.39-4.82-59.39,15.7h0c-12.01,20.51-4.88,46.75,15.91,58.59h0c20.8,11.84,47.39,4.82,59.39-15.7h0c12.01-20.51,4.88-46.75-15.91-58.59Z" fill="#fff"/>
      </g>
      <g>
        <path d="M116.76,617.66l-9.71,9.58v17.73h-20.19v-96.02h20.19v54.35l29.51-27.95h24.07l-28.99,29.5,31.58,40.12h-24.46l-22-27.31Z" fill="#fff"/>
        <path d="M164.13,610.15c0-20.96,16.18-35.85,38.31-35.85s38.18,14.88,38.18,35.85-16.05,35.85-38.18,35.85-38.31-14.88-38.31-35.85Zm56.03,0c0-12.03-7.64-19.28-17.73-19.28s-17.86,7.25-17.86,19.28,7.76,19.28,17.86,19.28,17.73-7.25,17.73-19.28Z" fill="#fff"/>
        <path d="M325.25,605.11v39.86h-20.19v-36.75c0-11.26-5.18-16.44-14.11-16.44-9.71,0-16.69,5.95-16.69,18.77v34.42h-20.19v-69.62h19.28v8.15c5.44-5.95,13.59-9.19,23.04-9.19,16.44,0,28.86,9.58,28.86,30.8Z" fill="#fff"/>
        <path d="M336.78,638.49l6.73-14.49c6.21,4.01,15.66,6.73,24.2,6.73,9.32,0,12.81-2.46,12.81-6.34,0-11.39-42.06,.26-42.06-27.56,0-13.2,11.91-22.52,32.22-22.52,9.58,0,20.19,2.2,26.79,6.08l-6.73,14.36c-6.86-3.88-13.72-5.18-20.06-5.18-9.06,0-12.94,2.85-12.94,6.47,0,11.91,42.06,.39,42.06,27.82,0,12.94-12.04,22.13-32.87,22.13-11.78,0-23.68-3.23-30.15-7.51Z" fill="#fff"/>
        <path d="M409.77,554.38c0-6.34,5.05-11.26,12.55-11.26s12.55,4.66,12.55,10.87c0,6.73-5.05,11.65-12.55,11.65s-12.55-4.92-12.55-11.26Zm2.46,20.96h20.19v69.62h-20.19v-69.62Z" fill="#fff"/>
      </g>
    </g>
  </g>
</svg>