<?xml version="1.0" encoding="UTF-8"?>
<svg id="Layer_2" data-name="Layer 2" xmlns="http://www.w3.org/2000/svg" viewBox="0 0 648 567.88">
  <g id="konsi-logo">
    <g>
      <path d="M584.82,196.91l-98.82,56.28c-33.42,19.03-74.59,19.03-108,0h0s-54-30.75-54-30.75h-.01c-33.41-19.04-53.99-54.21-53.99-92.26V17.59h108V191.67l152.82-87.04,54,92.27Z" fill="#fff"/>
      <path d="M584.82,370.98l-54,92.27-152.82-87.04v174.07h-108v-112.57c0-38.06,20.58-73.22,53.99-92.25h.01s54-30.76,54-30.76h0c33.41-19.04,74.59-19.04,108,0l98.82,56.28Z" fill="#fff"/>
      <path d="M270.01,253.17v61.54c0,38.06-20.58,73.23-54,92.26l-98.82,56.28-54-92.27,152.82-87.04L63.19,196.91l54-92.27,98.82,56.28c33.41,19.03,54,54.2,54,92.26Z" fill="#fff"/>
      <path d="M540,283.94h0c0,29.42,24.18,53.27,54,53.27h0c29.82,0,54-23.85,54-53.27h0c0-29.42-24.18-53.27-54-53.27h0c-29.82,0-54,23.85-54,53.27Z" fill="#fff"/>
      <path d="M216.01,99.41h0c25.83-14.71,34.68-47.29,19.77-72.77h0C220.86,1.17,187.83-7.56,162.01,7.15h0c-25.83,14.71-34.68,47.29-19.77,72.77h0c14.91,25.48,47.94,34.21,73.76,19.5Z" fill="#fff"/>
      <path d="M216.01,468.47h0c-25.83-14.71-58.85-5.98-73.76,19.5h0c-14.91,25.48-6.06,58.06,19.77,72.77h0c25.83,14.71,58.85,5.98,73.76-19.5h0c14.91-25.48,6.06-58.06-19.77-72.77Z" fill="#fff"/>
      <path d="M405,53.28h0c0,29.42,24.18,53.27,54,53.27h0c29.82,0,54-23.85,54-53.27h0C513,23.86,488.83,0,459,0h0c-29.82,0-54,23.85-54,53.27Z" fill="#fff"/>
      <path d="M81.01,330.08h0c25.83-14.71,34.68-47.29,19.77-72.77h0c-14.91-25.48-47.94-34.21-73.76-19.5h0C1.18,252.52-7.67,285.1,7.24,310.58h0c14.91,25.48,47.94,34.21,73.76,19.5Z" fill="#fff"/>
      <path d="M486,468.47h0c-25.83-14.71-58.85-5.98-73.76,19.5h0c-14.91,25.48-6.06,58.06,19.77,72.77h0c25.83,14.71,58.85,5.98,73.76-19.5h0c14.91-25.48,6.06-58.06-19.77-72.77Z" fill="#fff"/>
    </g>
  </g>
</svg>