<?xml version="1.0" encoding="UTF-8"?>
<svg id="Layer_2" data-name="Layer 2" xmlns="http://www.w3.org/2000/svg" viewBox="0 0 522.71 648">
  <g id="konsi-logo">
    <g>
      <g>
        <path d="M471.75,158.84l-79.71,45.4c-26.96,15.35-60.17,15.35-87.12,0h0s-43.56-24.8-43.56-24.8h-.01c-26.95-15.36-43.55-43.73-43.55-74.42V14.19h87.12V154.61l123.27-70.21,43.56,74.43Z" fill="#fff"/>
        <path d="M471.75,299.25l-43.56,74.43-123.27-70.21v140.42h-87.12v-90.81c0-30.7,16.6-59.07,43.55-74.42h.01s43.56-24.81,43.56-24.81h0c26.95-15.36,60.16-15.36,87.12,0l79.71,45.4Z" fill="#fff"/>
        <path d="M217.8,204.23v49.64c0,30.7-16.6,59.07-43.56,74.42l-79.72,45.4-43.56-74.43,123.27-70.21L50.97,158.84l43.56-74.43,79.72,45.4c26.95,15.35,43.56,43.72,43.56,74.42Z" fill="#fff"/>
        <path d="M435.6,229.04h0c0,23.73,19.5,42.97,43.56,42.97h0c24.06,0,43.56-19.24,43.56-42.97h0c0-23.73-19.5-42.97-43.56-42.97h0c-24.06,0-43.56,19.24-43.56,42.97Z" fill="#fff"/>
        <path d="M174.24,80.19h0c20.83-11.87,27.97-38.15,15.94-58.7h0C178.16,.94,151.52-6.1,130.68,5.76h0c-20.83,11.87-27.97,38.15-15.94,58.7h0c12.03,20.55,38.67,27.59,59.5,15.73Z" fill="#fff"/>
        <path d="M174.24,377.9h0c-20.83-11.87-47.47-4.82-59.5,15.73h0c-12.03,20.55-4.89,46.83,15.94,58.7h0c20.83,11.87,47.47,4.82,59.5-15.73h0c12.03-20.55,4.89-46.83-15.94-58.7Z" fill="#fff"/>
        <path d="M326.7,42.98h0c0,23.73,19.5,42.97,43.56,42.97h0c24.06,0,43.56-19.24,43.56-42.97h0C413.82,19.25,394.32,0,370.26,0h0c-24.06,0-43.56,19.24-43.56,42.97Z" fill="#fff"/>
        <path d="M65.35,266.26h0c20.83-11.87,27.97-38.15,15.94-58.7h0c-12.03-20.55-38.67-27.59-59.5-15.73h0C.95,203.7-6.19,229.98,5.84,250.53h0c12.03,20.55,38.67,27.59,59.5,15.73Z" fill="#fff"/>
        <path d="M392.04,377.9h0c-20.83-11.87-47.47-4.82-59.5,15.73h0c-12.03,20.55-4.89,46.83,15.94,58.7h0c20.83,11.87,47.47,4.82,59.5-15.73h0c12.03-20.55,4.89-46.83-15.94-58.7Z" fill="#fff"/>
      </g>
      <g>
        <path d="M117.05,619.62l-9.72,9.59v17.75h-20.22v-96.15h20.22v54.43l29.55-27.99h24.1l-29.03,29.55,31.62,40.17h-24.49l-22.03-27.34Z" fill="#fff"/>
        <path d="M164.49,612.1c0-20.99,16.2-35.9,38.36-35.9s38.23,14.9,38.23,35.9-16.07,35.9-38.23,35.9-38.36-14.9-38.36-35.9Zm56.11,0c0-12.05-7.65-19.31-17.75-19.31s-17.88,7.26-17.88,19.31,7.78,19.31,17.88,19.31,17.75-7.26,17.75-19.31Z" fill="#fff"/>
        <path d="M325.83,607.05v39.91h-20.22v-36.8c0-11.27-5.18-16.46-14.13-16.46-9.72,0-16.72,5.96-16.72,18.79v34.47h-20.22v-69.72h19.31v8.16c5.44-5.96,13.61-9.2,23.07-9.2,16.46,0,28.9,9.59,28.9,30.84Z" fill="#fff"/>
        <path d="M337.37,640.48l6.74-14.51c6.22,4.02,15.68,6.74,24.23,6.74,9.33,0,12.83-2.46,12.83-6.35,0-11.4-42.12,.26-42.12-27.6,0-13.22,11.92-22.55,32.27-22.55,9.59,0,20.22,2.2,26.83,6.09l-6.74,14.38c-6.87-3.89-13.74-5.18-20.09-5.18-9.07,0-12.96,2.85-12.96,6.48,0,11.92,42.12,.39,42.12,27.86,0,12.96-12.05,22.16-32.92,22.16-11.79,0-23.71-3.24-30.19-7.52Z" fill="#fff"/>
        <path d="M410.46,556.25c0-6.35,5.05-11.27,12.57-11.27s12.57,4.66,12.57,10.88c0,6.74-5.05,11.66-12.57,11.66s-12.57-4.92-12.57-11.27Zm2.46,20.99h20.22v69.72h-20.22v-69.72Z" fill="#fff"/>
      </g>
    </g>
  </g>
</svg>