<?xml version="1.0" encoding="UTF-8"?>
<svg id="Layer_2" data-name="Layer 2" xmlns="http://www.w3.org/2000/svg" viewBox="0 0 487.2 286.72">
  <g id="konsi-logo">
    <g>
      <path d="M478.12,159.01c-18.46-7.64-37.69-12.24-57.32-13.71,6.08-18.56,9.24-38.17,9.24-58.26v-9.81h-9.81c-20.08,0-39.67,3.15-58.22,9.22-1.48-19.45-6.07-38.76-13.75-57.31l-3.76-9.06-9.06,3.75c-18.55,7.68-35.45,18.09-50.25,30.8-8.82-17.41-20.45-33.49-34.64-47.69l-6.94-6.94-6.94,6.94c-14.2,14.2-25.83,30.28-34.64,47.69-14.8-12.71-31.7-23.12-50.25-30.8l-9.06-3.75-3.76,9.06c-7.68,18.55-12.27,37.86-13.75,57.31-18.55-6.07-38.14-9.22-58.22-9.22h-9.81v9.81c0,20.09,3.15,39.7,9.24,58.26-19.64,1.47-38.86,6.07-57.32,13.71l-9.06,3.76,3.75,9.06c14.39,34.74,38.56,63.96,69.88,84.5,25.07,16.43,53.39,26.52,82.87,29.62,3.26,.34,6.53,.6,9.81,.77v-85.46l22.04-22.04,6.73-6.73,6.87-6.87,1.6-1.6,5.4-5.4,7.03-7.03,13.62-13.62,5.15-5.15,7.49-7.49,1.34-1.34,1.34,1.34,7.49,7.49,5.15,5.15,13.62,13.62,7.03,7.03,5.4,5.4,1.6,1.6,6.87,6.87,6.73,6.73,22.04,22.04v85.46c3.28-.17,6.56-.43,9.81-.77,29.47-3.1,57.8-13.19,82.87-29.62,31.33-20.55,55.5-49.76,69.88-84.5l3.76-9.06-9.07-3.76Zm-87.04,6.14c1.78-3.35,3.45-6.76,4.99-10.23,1.47-3.29,2.83-6.64,4.08-10.03,5.61-15.19,8.98-31.24,9.96-47.74-16.49,.98-32.51,4.35-47.68,9.94,.12-3.47,.15-6.93,.07-10.4,18.09-6.26,37.51-9.65,57.72-9.65,0,20.23-3.4,39.67-9.67,57.77-1.13,3.31-2.37,6.56-3.71,9.78-1.38,3.34-2.86,6.64-4.45,9.87-8.64,17.68-20.14,33.71-33.9,47.48-11.21,11.21-23.92,20.92-37.81,28.8v-11.35c11.08-6.81,21.44-14.97,30.87-24.4,11.93-11.93,21.84-25.35,29.53-39.85Zm-234.57,110.91c-61.86-6.92-118.18-46.4-143.69-107.98,18.67-7.73,37.92-12.03,57.02-13.18,1.26,3.24,2.62,6.45,4.07,9.62-16.32,.63-32.37,3.66-47.87,9.03,13.14,27.04,33.16,49.85,58.36,66.37,21.86,14.33,46.48,23.26,72.11,26.28v9.86Zm0-35.33c-30.93-17.56-56.04-44.19-71.71-76.28h0c-1.58-3.24-3.07-6.53-4.45-9.87-1.34-3.21-2.58-6.47-3.71-9.78-6.27-18.1-9.67-37.54-9.67-57.77,20.21,0,39.64,3.4,57.72,9.65-.08,3.47-.05,6.94,.07,10.4-15.17-5.59-31.2-8.97-47.68-9.94,.98,16.5,4.35,32.55,9.96,47.74,1.25,3.39,2.61,6.73,4.08,10.03,1.54,3.47,3.21,6.88,4.99,10.23,7.69,14.49,17.6,27.92,29.53,39.85,9.43,9.43,19.78,17.59,30.87,24.4v11.35Zm-3.03-194.64c-5.41,15.6-8.43,31.71-9.07,47.86-.14,3.63-.17,7.26-.07,10.89,.1,3.77,.33,7.54,.69,11.31,1.44,15.06,4.97,30.01,10.57,44.47h0c.47,1.23,.96,2.47,1.47,3.69,1.42,3.43,2.94,6.8,4.58,10.1,1.93,3.91,3.99,7.73,6.19,11.44l-7.13,7.13c-2.27-3.69-4.39-7.45-6.37-11.28-2.31-4.45-4.42-9-6.33-13.62-1.68-4.05-3.21-8.16-4.58-12.32-4.73-14.35-7.65-29.33-8.59-44.57-.22-3.58-.33-7.17-.33-10.77s.1-7,.31-10.51c1.15-19.1,5.45-38.35,13.18-57.02,18.67,7.73,35.32,18.3,49.63,31-1.4,3.18-2.7,6.4-3.91,9.65-11.88-10.98-25.4-20.23-40.26-27.44Zm141.85,92.67c0,5.01-.21,10.03-.64,15.03-.19,2.24-.42,4.47-.7,6.7l-8.95-8.95c.04-.57,.08-1.13,.12-1.7,.24-3.67,.36-7.37,.36-11.08,0-1.32-.01-2.63-.04-3.94h0c-.36-15.52-2.83-30.68-7.27-45.16h0c-1.1-3.62-2.34-7.19-3.69-10.72-1.29-3.39-2.7-6.73-4.23-10.03-6.78-14.68-15.72-28.4-26.69-40.75-10.97,12.35-19.91,26.07-26.69,40.75-1.52,3.29-2.93,6.64-4.23,10.03-1.36,3.53-2.59,7.1-3.69,10.71-4.44,14.48-6.91,29.65-7.27,45.16-.03,1.31-.04,2.62-.04,3.94,0,3.71,.12,7.4,.36,11.08,.04,.57,.07,1.13,.12,1.7l-8.95,8.95c-.28-2.23-.51-4.46-.7-6.7-.42-5-.64-10.02-.64-15.03h0c0-4.37,.16-8.74,.48-13.1,1.11-15.08,4.15-30.05,9.13-44.49,1.17-3.39,2.44-6.75,3.82-10.08,1.33-3.23,2.77-6.43,4.31-9.59,8.37-17.21,19.7-33.34,33.99-47.63,14.3,14.29,25.62,30.43,33.99,47.63,1.53,3.16,2.97,6.35,4.31,9.59,1.38,3.33,2.66,6.69,3.82,10.08,4.97,14.45,8.02,29.41,9.13,44.49,.33,4.36,.48,8.73,.48,13.09h0Zm31.15,54.22l-7.13-7.13c2.2-3.72,4.27-7.53,6.19-11.44,1.63-3.3,3.15-6.67,4.58-10.1,.51-1.23,1-2.45,1.47-3.69h0c5.61-14.47,9.13-29.41,10.57-44.48,.36-3.77,.59-7.54,.69-11.31,.1-3.62,.07-7.26-.07-10.89-.64-16.15-3.66-32.26-9.07-47.86-14.85,7.21-28.38,16.46-40.26,27.44-1.21-3.25-2.51-6.47-3.91-9.65,14.31-12.7,30.96-23.27,49.63-31,7.73,18.67,12.03,37.92,13.18,57.02,.21,3.51,.31,7.01,.31,10.5h0c0,3.61-.11,7.2-.33,10.78-.94,15.24-3.85,30.22-8.59,44.57-1.37,4.16-2.9,8.27-4.58,12.32-1.91,4.62-4.02,9.17-6.33,13.62-1.98,3.84-4.1,7.6-6.37,11.28Zm81.7,55.14c-23.21,15.22-49.79,24.84-77.49,27.94v-9.86c25.64-3.02,50.25-11.95,72.11-26.29,25.21-16.52,45.23-39.33,58.37-66.36-15.5-5.37-31.55-8.4-47.87-9.03,1.45-3.17,2.81-6.38,4.07-9.62,19.1,1.15,38.35,5.45,57.02,13.18-14.09,34.01-37.57,61.28-66.2,80.05Z" fill="#fff"/>
      <path d="M262.91,220.58v60.01c-3.29-.89-6.56-1.86-9.81-2.94-1.37-.45-2.74-.91-4.1-1.4-1.01-.36-2.01-.72-3.02-1.1-.78-.29-1.55-.58-2.32-.88h0s-.04-.02-.06-.03c-.02,.01-.04,.02-.06,.03-.77,.3-1.55,.59-2.33,.88-1.01,.38-2.01,.75-3.02,1.1-1.36,.48-2.72,.95-4.1,1.4-3.25,1.08-6.52,2.05-9.81,2.94v-60.01h38.64Z" fill="#fff"/>
    </g>
  </g>
</svg>