<?xml version="1.0" encoding="UTF-8"?>
<svg id="Layer_2" data-name="Layer 2" xmlns="http://www.w3.org/2000/svg" viewBox="0 0 594.69 145.45">
  <g id="konsi-logo">
    <g>
      <path d="M242.55,80.66c-9.36-3.88-19.12-6.21-29.08-6.96,3.09-9.41,4.69-19.36,4.69-29.55v-4.98h-4.98c-10.19,0-20.13,1.6-29.53,4.68-.75-9.87-3.08-19.66-6.98-29.07l-1.91-4.6-4.6,1.9c-9.41,3.9-17.98,9.18-25.49,15.62-4.47-8.83-10.37-16.99-17.58-24.19l-3.52-3.52-3.52,3.52c-7.2,7.2-13.1,15.36-17.58,24.19-7.51-6.45-16.08-11.73-25.49-15.62l-4.6-1.9-1.91,4.6c-3.9,9.41-6.22,19.21-6.98,29.07-9.41-3.08-19.35-4.68-29.53-4.68h-4.98v4.98c0,10.19,1.6,20.14,4.69,29.55-9.96,.75-19.72,3.08-29.08,6.96l-4.6,1.91,1.9,4.6c7.3,17.63,19.56,32.45,35.45,42.87,12.72,8.33,27.09,13.45,42.04,15.02,1.65,.17,3.31,.3,4.98,.39v-43.35l11.18-11.18,3.42-3.42,3.48-3.48,.81-.81,2.74-2.74,3.57-3.57,6.91-6.91,2.61-2.61,3.8-3.8,.68-.68,.68,.68,3.8,3.8,2.61,2.61,6.91,6.91,3.57,3.57,2.74,2.74,.81,.81,3.48,3.48,3.42,3.42,11.18,11.18v43.35c1.66-.09,3.33-.22,4.98-.39,14.95-1.57,29.32-6.69,42.04-15.02,15.9-10.42,28.15-25.24,35.45-42.87l1.91-4.6-4.6-1.91Zm-44.16,3.11c.91-1.7,1.75-3.43,2.53-5.19,.75-1.67,1.43-3.37,2.07-5.09,2.84-7.7,4.55-15.85,5.05-24.22-8.36,.49-16.49,2.21-24.19,5.04,.06-1.76,.08-3.52,.04-5.28,9.18-3.17,19.03-4.9,29.28-4.9,0,10.26-1.73,20.12-4.91,29.31-.58,1.68-1.2,3.33-1.88,4.96-.7,1.7-1.45,3.37-2.26,5.01-4.38,8.97-10.22,17.1-17.2,24.08-5.69,5.69-12.14,10.61-19.18,14.61v-5.76c5.62-3.45,10.88-7.59,15.66-12.38,6.05-6.05,11.08-12.86,14.98-20.21Zm-119,56.27c-31.38-3.51-59.95-23.54-72.89-54.78,9.47-3.92,19.24-6.1,28.93-6.69,.64,1.65,1.33,3.27,2.06,4.88-8.28,.32-16.42,1.85-24.29,4.58,6.66,13.72,16.82,25.29,29.61,33.67,11.09,7.27,23.58,11.8,36.58,13.33v5Zm0-17.92c-15.69-8.91-28.43-22.42-36.38-38.69h0c-.8-1.64-1.56-3.31-2.26-5.01-.68-1.63-1.31-3.28-1.88-4.96-3.18-9.18-4.91-19.04-4.91-29.31,10.25,0,20.11,1.72,29.28,4.9-.04,1.76-.02,3.52,.04,5.28-7.7-2.84-15.83-4.55-24.19-5.04,.5,8.37,2.21,16.51,5.05,24.22,.63,1.72,1.32,3.42,2.07,5.09,.78,1.76,1.63,3.49,2.53,5.19,3.9,7.35,8.93,14.16,14.98,20.21,4.78,4.78,10.04,8.92,15.66,12.38v5.76Zm-1.54-98.74c-2.74,7.91-4.28,16.09-4.6,24.28-.07,1.84-.08,3.68-.03,5.52,.05,1.91,.16,3.83,.35,5.74,.73,7.64,2.52,15.22,5.36,22.56h0c.24,.63,.49,1.25,.75,1.87,.72,1.74,1.49,3.45,2.32,5.12,.98,1.98,2.03,3.92,3.14,5.81l-3.62,3.62c-1.15-1.87-2.23-3.78-3.23-5.72-1.17-2.26-2.24-4.56-3.21-6.91-.85-2.05-1.63-4.14-2.32-6.25-2.4-7.28-3.88-14.88-4.36-22.61-.11-1.81-.17-3.64-.17-5.46s.05-3.55,.16-5.33c.58-9.69,2.76-19.45,6.69-28.93,9.47,3.92,17.92,9.28,25.18,15.73-.71,1.61-1.37,3.25-1.98,4.89-6.03-5.57-12.89-10.26-20.42-13.92Zm71.96,47.01c0,2.54-.11,5.09-.32,7.62-.1,1.14-.21,2.27-.35,3.4l-4.54-4.54c.02-.29,.04-.58,.06-.86,.12-1.86,.18-3.74,.18-5.62,0-.67,0-1.33-.02-2h0c-.18-7.87-1.43-15.57-3.69-22.91h0c-.56-1.84-1.19-3.65-1.87-5.44-.66-1.72-1.37-3.42-2.14-5.09-3.44-7.45-7.98-14.41-13.54-20.67-5.56,6.26-10.1,13.22-13.54,20.67-.77,1.67-1.49,3.37-2.14,5.09-.69,1.79-1.31,3.6-1.87,5.44-2.25,7.35-3.5,15.04-3.69,22.91-.02,.67-.02,1.33-.02,2,0,1.88,.06,3.76,.18,5.62,.02,.29,.04,.58,.06,.86l-4.54,4.54c-.14-1.13-.26-2.26-.35-3.4-.21-2.54-.32-5.08-.32-7.62h0c0-2.22,.08-4.43,.25-6.65,.56-7.65,2.11-15.24,4.63-22.57,.59-1.72,1.24-3.43,1.94-5.11,.68-1.64,1.41-3.26,2.18-4.86,4.25-8.73,9.99-16.92,17.25-24.16,7.25,7.25,13,15.43,17.25,24.16,.78,1.6,1.51,3.22,2.18,4.86,.7,1.69,1.35,3.39,1.94,5.11,2.52,7.33,4.07,14.92,4.63,22.57,.16,2.21,.25,4.43,.25,6.64h0Zm15.8,27.51l-3.62-3.62c1.12-1.89,2.17-3.82,3.14-5.81,.83-1.67,1.6-3.38,2.32-5.12,.26-.62,.51-1.24,.75-1.87h0c2.84-7.34,4.63-14.92,5.36-22.56,.18-1.91,.3-3.82,.35-5.74,.05-1.84,.04-3.68-.03-5.52-.32-8.19-1.86-16.37-4.6-24.28-7.54,3.66-14.4,8.35-20.42,13.92-.61-1.65-1.27-3.28-1.98-4.89,7.26-6.44,15.71-11.8,25.18-15.73,3.92,9.47,6.1,19.24,6.69,28.93,.11,1.78,.16,3.56,.16,5.33h0c0,1.83-.06,3.65-.17,5.47-.48,7.73-1.95,15.33-4.36,22.61-.7,2.11-1.47,4.2-2.32,6.25-.97,2.35-2.04,4.65-3.21,6.91-1,1.95-2.08,3.85-3.23,5.72Zm41.44,27.97c-11.77,7.72-25.26,12.6-39.31,14.17v-5c13-1.53,25.49-6.06,36.58-13.33,12.79-8.38,22.95-19.95,29.61-33.67-7.87-2.73-16.01-4.26-24.29-4.58,.73-1.61,1.42-3.24,2.06-4.88,9.69,.58,19.45,2.76,28.93,6.69-7.15,17.25-19.06,31.09-33.58,40.61Z" fill="#fff"/>
      <path d="M133.38,111.9v30.44c-1.67-.45-3.33-.95-4.98-1.49-.7-.23-1.39-.46-2.08-.71-.51-.18-1.02-.37-1.53-.56-.4-.15-.79-.3-1.18-.45h0s-.02,0-.03-.02c0,0-.02,0-.03,.02-.39,.15-.79,.3-1.18,.45-.51,.19-1.02,.38-1.53,.56-.69,.25-1.38,.48-2.08,.71-1.65,.55-3.31,1.04-4.98,1.49v-30.44h19.6Z" fill="#fff"/>
      <g>
        <path d="M296.5,86.9l-16.32,15v19.74h-9.34V24h9.34V90.19l41.32-37.77h11.58l-29.61,28.29,32.37,40.92h-11.45l-27.9-34.74Z" fill="#fff"/>
        <path d="M340.19,87.03c0-20.53,15-35.13,35.27-35.13s35.13,14.61,35.13,35.13-14.87,35.27-35.13,35.27-35.27-14.74-35.27-35.27Zm60.93,0c0-16.19-10.92-26.98-25.66-26.98s-25.79,10.79-25.79,26.98,11.05,26.98,25.79,26.98,25.66-10.79,25.66-26.98Z" fill="#fff"/>
        <path d="M493.36,81.5v40.14h-9.34v-39.21c0-14.61-7.63-22.11-20.79-22.11-14.87,0-24.21,9.21-24.21,25v36.32h-9.34V52.42h8.95v12.76c5-8.42,14.34-13.29,26.32-13.29,16.84,0,28.42,9.74,28.42,29.61Z" fill="#fff"/>
        <path d="M509.16,113.74l4.21-7.37c5.53,4.34,14.87,7.76,24.61,7.76,13.16,0,18.55-4.47,18.55-11.32,0-18.03-44.87-3.82-44.87-31.19,0-11.32,9.74-19.74,27.37-19.74,8.95,0,18.69,2.5,24.48,6.45l-4.08,7.5c-6.05-4.21-13.29-5.92-20.4-5.92-12.5,0-18.03,4.87-18.03,11.45,0,18.69,44.87,4.61,44.87,31.19,0,11.98-10.53,19.74-28.56,19.74-11.45,0-22.5-3.68-28.16-8.55Z" fill="#fff"/>
        <path d="M581.01,30.58c0-3.55,3.03-6.58,6.84-6.58s6.84,2.89,6.84,6.45c0,3.82-2.89,6.84-6.84,6.84s-6.84-3.03-6.84-6.71Zm2.11,21.84h9.34V121.64h-9.34V52.42Z" fill="#fff"/>
      </g>
    </g>
  </g>
</svg>