<?xml version="1.0" encoding="UTF-8"?>
<svg id="Layer_2" data-name="Layer 2" xmlns="http://www.w3.org/2000/svg" viewBox="0 0 563.81 523.41">
  <g id="konsi-logo">
    <g>
      <g>
        <path d="M561.9,186.55c1.58,.63,2.34,2.45,1.66,4.02-17.38,40.36-45.65,72.79-79.94,95.26-28.02,18.37-60.06,30.09-93.45,34.07-7.21,.86-13.55-4.74-13.55-12v-74.51c0-3.2-1.27-6.28-3.54-8.54l-82.63-82.63c-4.72-4.72-12.37-4.72-17.09,0l-82.63,82.63c-2.27,2.27-3.54,5.34-3.54,8.54v74.51c0,7.27-6.37,12.85-13.59,11.99C99.34,311.04,31.83,263.9,.25,190.57c-.67-1.56,.08-3.39,1.66-4.02,26.2-10.43,53.27-15.37,79.9-15.37h0c-10.2-24.61-15.99-51.5-16.38-79.7-.02-1.7,1.37-3.1,3.07-3.07,28.2,.4,55.09,6.18,79.7,16.38,0-26.64,4.95-53.7,15.37-79.9,.63-1.58,2.45-2.34,4.02-1.66,25.91,11.16,48.53,26.79,67.37,45.63,10.19-24.61,25.11-47.72,44.77-67.93,1.19-1.22,3.16-1.22,4.35,0,19.66,20.22,34.58,43.32,44.77,67.93,18.83-18.83,41.46-34.47,67.37-45.63,1.56-.67,3.39,.08,4.02,1.66,10.43,26.2,15.37,53.27,15.37,79.9h0c24.61-10.19,51.5-15.98,79.7-16.37,1.7-.02,3.1,1.37,3.07,3.07-.4,28.2-6.18,55.09-16.38,79.7,26.64,0,53.7,4.95,79.9,15.37Z" fill="#fff"/>
        <path d="M305.58,264.18v40.82c0,4.08-3.99,6.99-7.87,5.73-4.54-1.48-9.05-3.12-13.55-4.93-1.45-.58-3.07-.58-4.52,0-4.49,1.8-9.01,3.45-13.55,4.93-3.88,1.27-7.87-1.64-7.87-5.73v-40.82c0-6.69,5.42-12.11,12.11-12.11h23.14c6.69,0,12.11,5.42,12.11,12.11Z" fill="#fff"/>
      </g>
      <g>
        <path d="M125.47,498.59l-4.86,4.94c-.46,.47-.72,1.1-.72,1.75v14.41c0,1.38-1.12,2.5-2.5,2.5h-20.61c-1.38,0-2.5-1.12-2.5-2.5v-95.03c0-1.38,1.12-2.5,2.5-2.5h20.61c1.38,0,2.5,1.12,2.5,2.5v44.01c0,2.21,2.66,3.34,4.25,1.79l21.18-20.63c.47-.45,1.09-.71,1.75-.71h23.41c2.21,0,3.33,2.66,1.8,4.24l-24.7,25.46c-.87,.9-.94,2.3-.17,3.29l28.36,36.03c1.29,1.64,.12,4.05-1.97,4.05h-24.65c-.76,0-1.48-.35-1.95-.94l-17.98-22.47c-.94-1.17-2.69-1.26-3.74-.19Z" fill="#fff"/>
        <path d="M178.95,485.52c0-21.97,17.39-37.61,41.25-37.61s41.25,15.64,41.25,37.61-17.12,37.88-41.25,37.88-41.25-15.77-41.25-37.88Zm56.62,0c0-11.05-6.61-17.26-15.37-17.26s-15.37,6.2-15.37,17.26,6.74,17.53,15.37,17.53,15.37-6.34,15.37-17.53Z" fill="#fff"/>
        <path d="M351.1,480.4v39.29c0,1.38-1.12,2.5-2.5,2.5h-20.61c-1.38,0-2.5-1.12-2.5-2.5v-35.11c0-10.52-4.58-14.96-12-14.96-8.22,0-14.56,5.12-14.56,17.26v32.82c0,1.38-1.12,2.5-2.5,2.5h-20.61c-1.38,0-2.5-1.12-2.5-2.5v-68.07c0-1.38,1.12-2.5,2.5-2.5h19.4c1.38,0,2.5,1.12,2.5,2.5h0c0,2.05,2.31,3.2,3.98,2.01,5.33-3.8,11.98-5.73,19.21-5.73,17.12,0,30.2,9.84,30.2,32.49Z" fill="#fff"/>
        <path d="M362.26,513.79l5.67-12.94c.58-1.33,2.17-1.86,3.46-1.19,6.56,3.39,15.21,5.41,23.12,5.41,8.63,0,11.46-1.89,11.46-4.99,0-9.84-43.14,1.35-43.14-27.91,0-13.75,12.67-24.27,35.59-24.27,9.28,0,19.44,1.77,26.68,5.11,1.23,.57,1.75,2.03,1.21,3.27l-5.65,12.79c-.57,1.3-2.11,1.84-3.39,1.23-6.5-3.12-12.93-4.2-18.72-4.2-8.63,0-11.73,2.43-11.73,5.12,0,10.11,43-.81,43,28.18,0,13.48-12.4,24-36.13,24-11.28,0-22.9-2.57-30.28-6.38-1.18-.61-1.7-2.02-1.16-3.24Z" fill="#fff"/>
        <path d="M438.06,427.42c0-7.68,6.2-13.62,15.64-13.62s15.64,5.53,15.64,13.21c0,8.09-6.2,14.02-15.64,14.02s-15.64-5.93-15.64-13.62Zm5.33,21.7h20.61c1.38,0,2.5,1.12,2.5,2.5v68.07c0,1.38-1.12,2.5-2.5,2.5h-20.61c-1.38,0-2.5-1.12-2.5-2.5v-68.07c0-1.38,1.12-2.5,2.5-2.5Z" fill="#fff"/>
      </g>
    </g>
  </g>
</svg>