<svg version="1.2" xmlns="http://www.w3.org/2000/svg" viewBox="0 0 120 120" width="120" height="120">
	<title>photo (2)-svg</title>
	<style>
		.s0 { fill: none } 
		.s1 { fill: none;stroke: #bfc6d4;stroke-linecap: round;stroke-linejoin: round;stroke-width: 2 } 
	</style>
	<path id="Layer" fill-rule="evenodd" class="s0" d="m48 48h24v24h-24z"/>
	<path id="Layer" fill-rule="evenodd" class="s1" d="m63 56"/>
	<path id="Layer" fill-rule="evenodd" class="s1" d="m51 54q0-0.6 0.2-1.1 0.3-0.6 0.7-1 0.4-0.4 1-0.7 0.5-0.2 1.1-0.2h12q0.6 0 1.1 0.2 0.6 0.3 1 0.7 0.4 0.4 0.7 1 0.2 0.5 0.2 1.1v12q0 0.6-0.2 1.1-0.3 0.6-0.7 1-0.4 0.4-1 0.7-0.5 0.2-1.1 0.2h-12q-0.6 0-1.1-0.2-0.6-0.3-1-0.7-0.4-0.4-0.7-1-0.2-0.5-0.2-1.1z"/>
	<path id="Layer" fill-rule="evenodd" class="s1" d="m51 64l5-5c0.9-0.9 2.1-0.9 3 0l5 5"/>
	<path id="Layer" fill-rule="evenodd" class="s1" d="m62 62l1-1c0.9-0.9 2.1-0.9 3 0l3 3"/>
</svg>